Coordinates
version=1
nRows=9
nColumns=24
inDegrees=yes

Units are S.I. units (second, meters, Newtons, ...)
Angles are in degrees.

endheader
time	pelvis_tilt	pelvis_list	pelvis_rotation	pelvis_tx	pelvis_ty	pelvis_tz	hip_flexion_r	hip_adduction_r	hip_rotation_r	knee_angle_r	ankle_angle_r	subtalar_angle_r	mtp_angle_r	hip_flexion_l	hip_adduction_l	hip_rotation_l	knee_angle_l	ankle_angle_l	subtalar_angle_l	mtp_angle_l	lumbar_extension	lumbar_bending	lumbar_rotation
      2.73500000	     21.35562810	     -1.35654068	      0.03046814	     -0.07948676	      0.97607727	     -0.00063946	     -1.44495877	     -1.33685812	    -18.23445226	    -24.35662979	     10.55868844	      2.15325883	     35.99012852	    -34.64009024	      4.59910536	    -15.55733233	      4.74861134	      9.71790098	     18.02704891	     13.96615990	    -30.91966293	     -1.16271758	     -0.88178085
      2.74000000	     21.57639860	     -1.52639361	      0.36681493	     -0.07342373	      0.97571644	     -0.00082443	     -1.86532754	     -0.83622258	    -19.01216643	    -22.12390221	     10.22355502	      2.65158227	     36.14833367	    -35.33014787	      4.27438691	    -15.73402473	      4.87019036	      9.93553880	     18.55209977	     13.84267638	    -31.14980927	     -0.86631552	     -1.09294442
      2.74500000	     21.71719094	     -1.64367927	      0.54381681	     -0.06740917	      0.97521941	     -0.00066975	     -2.15493667	     -0.37978009	    -19.54331171	    -19.96872458	      9.96157799	      3.22837762	     36.26075191	    -35.90854400	      4.06855303	    -15.96135030	      4.93446912	     10.16370311	     18.99850709	     13.72049796	    -31.30644273	     -0.71164470	     -1.13577437
      2.75000000	     21.91341701	     -1.81851768	      0.72664861	     -0.06122061	      0.97475751	     -0.00061199	     -2.54539945	      0.14355177	    -20.15548348	    -17.77161644	      9.78303571	      3.96301714	     36.37608800	    -36.55583067	      3.82089226	    -16.31282962	      4.99262494	     10.41169108	     19.49761757	     13.60158987	    -31.47498650	     -0.49306637	     -1.20291440
      2.75500000	     22.07546009	     -1.95445475	      0.92738855	     -0.05498051	      0.97417952	     -0.00045848	     -2.89508530	      0.65231385	    -20.75121867	    -15.63348012	      9.59017827	      4.71990762	     36.50627323	    -37.14359842	      3.58303929	    -16.61869354	      4.99486674	     10.78356735	     19.96497170	     13.58384057	    -31.62143769	     -0.32625749	     -1.30089632
      2.76000000	     22.20408625	     -1.96785516	      1.24185622	     -0.04928479	      0.97351593	     -0.00053143	     -3.12896025	      1.01077877	    -21.51614624	    -13.67989575	      9.26125820	      5.21100673	     36.54746502	    -37.62295770	      3.37539706	    -16.50466621	      4.94025357	     11.03768813	     19.97750876	     13.44151248	    -31.78729714	     -0.19377342	     -1.52794874
      2.76500000	     22.34809756	     -1.95384837	      1.57748004	     -0.04360764	      0.97289722	     -0.00053058	     -3.42073202	      1.37140982	    -22.20006134	    -11.66770269	      8.84429143	      5.69214291	     36.56370688	    -38.10992608	      3.15630676	    -16.27491212	      4.86443002	     11.26237619	     20.05520695	     13.28021332	    -31.98662454	     -0.08784400	     -1.83409807
      2.77000000	     22.50482298	     -1.99316204	      1.76800225	     -0.03748750	      0.97221338	     -0.00034007	     -3.75346730	      1.77842215	    -22.76068552	     -9.70130220	      8.47430402	      6.42877444	     36.74727244	    -38.65400717	      2.98426884	    -16.36551047	      4.81184069	     11.51712300	     20.38887383	     12.98692701	    -32.13659513	     -0.00752749	     -1.91248754
      2.77500000	     22.59496572	     -2.11069089	      1.85367137	     -0.03122862	      0.97140360	      0.00009337	     -4.03502453	      2.29623059	    -23.03955532	     -7.72555309	      8.02635418	      6.80165783	     36.78876074	    -39.16288357	      2.80753017	    -16.51389788	      4.80760723	     11.77208230	     20.48722265	     12.91175063	    -32.19302594	      0.10064106	     -1.94228292
